<svg id="Layer_1" enable-background="new 0 0 512 512" height="512" viewBox="0 0 512 512" width="512" xmlns="http://www.w3.org/2000/svg"><g><path d="m263.462 512c-20.379 0-44.169-1.994-79.954-16.457-10.24-4.14-15.187-15.797-11.048-26.038 4.139-10.239 15.795-15.187 26.038-11.048 30.917 12.496 49.744 13.543 64.964 13.543 20.7 0 37.541-17.577 37.541-39.183v-282.817c0-11.046 8.954-20 20-20s20 8.954 20 20v282.817c0 43.662-34.786 79.183-77.541 79.183z"/><path d="m321.003 90c-11.046 0-20-8.954-20-20v-50c0-11.046 8.954-20 20-20s20 8.954 20 20v50c0 11.046-8.954 20-20 20z"/></g></svg>